<svg xmlns="http://www.w3.org/2000/svg" width="127.402" height="127.403" viewBox="0 0 127.402 127.403">
  <path id="iconmonstr-smiley-4" d="M63.7,10.617A53.084,53.084,0,1,1,10.617,63.7,53.145,53.145,0,0,1,63.7,10.617ZM63.7,0a63.7,63.7,0,1,0,63.7,63.7A63.7,63.7,0,0,0,63.7,0Zm.005,74.318c-12.379,0-22,8.685-27.036,14.848l2.5,3.079A43.683,43.683,0,0,1,63.707,85.3a43.683,43.683,0,0,1,24.536,6.943l2.5-3.079C85.71,83,76.086,74.318,63.707,74.318ZM45.122,42.468a7.963,7.963,0,1,0,7.963,7.963A7.962,7.962,0,0,0,45.122,42.468Zm37.159,0a7.963,7.963,0,1,0,7.963,7.963A7.962,7.962,0,0,0,82.281,42.468Z" fill="#2eb934"/>
</svg>
