<svg xmlns="http://www.w3.org/2000/svg" width="128" height="128" viewBox="0 0 128 128">
  <path id="iconmonstr-smiley-2" d="M64,10.667A53.333,53.333,0,1,1,10.667,64,53.394,53.394,0,0,1,64,10.667ZM64,0a64,64,0,1,0,64,64A64,64,0,0,0,64,0ZM93.371,74.352c-8.064,6.373-16.928,10.3-29.365,10.3s-21.312-3.925-29.376-10.3L32,76.981C38.011,86.155,49.067,96,64.005,96S89.989,86.155,96,76.981ZM45.333,42.667a8,8,0,1,0,8,8A8,8,0,0,0,45.333,42.667Zm37.333,0a8,8,0,1,0,8,8A8,8,0,0,0,82.667,42.667Z" fill="#2eb934"/>
</svg>
