<svg xmlns="http://www.w3.org/2000/svg" width="177.409" height="177.258" viewBox="0 0 177.409 177.258">
  <g id="Layer_14" data-name="Layer 14" transform="translate(-441.59 -421.734)">
    <g id="Group_65" data-name="Group 65" transform="translate(441.59 421.734)">
      <g id="Group_62" data-name="Group 62" transform="translate(2.745)">
        <path id="Path_192" data-name="Path 192" d="M531.266,514.531c9.695-4.491,13.493-25.091,2.54-31.791l-.124-.673a27.1,27.1,0,0,0,11.217-4.783l.228.342c7.936,3.2,14.83,25.345-3.6,34.15a31.182,31.182,0,0,1-3.628,1.469,39.677,39.677,0,0,1-6.546,1.525Z" transform="translate(-381.33 -382.706)" fill="#d4d4d4"/>
        <path id="Path_193" data-name="Path 193" d="M506.528,421.75c15.177.8,20.135,28,16.745,51.98-.163,1.205-.344,2.459-.557,3.712a66.446,66.446,0,0,1-2.516,10.68l.148,3.6a32.609,32.609,0,0,1-10.469-1.044l-.688-.451c3.456-9.059,16.394-55.678-2.787-67Z" transform="translate(-398.797 -421.724)" fill="#e2e2e2"/>
        <path id="Path_194" data-name="Path 194" d="M573.541,521.1l.124.673c10.953,6.7,7.154,27.3-2.54,31.791l.089.242c4.083,11.116-15.053,15.885-29.264,16.418-23.927.88-52.63,1.621-60.4-4.985-9.48-8.057-9.817-44.906,1.847-62.084l-.009-2.949c1.386-.007,2.678-.015,3.841-.029l-.009-.255.667.053c.778-3.085,4.481-13.522,20.439-20.2,18.894-7.915-5.5-52.347,16.309-57.593a14.061,14.061,0,0,1,4.282-.414l-.124,1.478c19.181,11.326,6.243,57.944,2.787,67l.688.451a32.609,32.609,0,0,0,10.469,1.044l-.148-3.6a66.446,66.446,0,0,0,2.516-10.68l.334.058c6.3-.354,41.633,1.11,46.215,18.456a18.846,18.846,0,0,1-6.884,20.332l-.015.015A27.1,27.1,0,0,1,573.541,521.1Z" transform="translate(-421.188 -421.734)" fill="#fff"/>
        <path id="Path_195" data-name="Path 195" d="M492.941,551.726c-4.027-.119-7.212-.2-9-.187-9.337-.007-16.953-18.749-16.968-41.837,0-23.119,7.6-41.87,16.942-41.878q2.579.005,4.779,0l.008,2.949c-11.664,17.179-11.327,54.028-1.847,62.084,7.769,6.606,36.473,5.865,60.4,4.985,14.211-.533,33.347-5.3,29.264-16.418a39.685,39.685,0,0,0,6.546-1.525l3.756.16c1.823,8.339-2.013,32.3-33.391,32.976C545.909,553.207,510.853,552.226,492.941,551.726Z" transform="translate(-426.498 -389.355)" fill="#e5e5e5"/>
        <path id="Path_196" data-name="Path 196" d="M472.495,524.065c-3.473.008-6.3,2.266-6.3,5.087-.005,2.8,2.826,5.1,6.3,5.111,3.523-.007,6.347-2.3,6.351-5.118C478.832,526.326,476.016,524.075,472.495,524.065Zm28.154,10.192c1.784-.012,4.97.068,9,.187l0,.143c-3.3,5.447-7.3,8.595-11.569,8.595L463.9,541.976c-11.409.012-20.68-21.379-20.693-49.247,12.643,2.925,25.561,1.987,40.479-.31C483.7,515.508,491.312,534.25,500.649,534.256Z" transform="translate(-443.202 -372.073)" fill="#7997f9"/>
        <path id="Path_197" data-name="Path 197" d="M509.244,471.229c-1.163.014-2.455.022-3.841.029q-2.2.008-4.779,0c-9.339.008-16.939,18.759-16.942,41.878-14.918,2.3-27.836,3.235-40.479.31,0-27.9,9.262-50.505,20.671-50.516l34.178,0,.271.009c4.027.119,7.764,3.066,10.914,8.036Z" transform="translate(-443.202 -392.792)" fill="#70b6fc"/>
      </g>
      <g id="Group_64" data-name="Group 64" transform="translate(0 0.663)">
        <path id="Path_198" data-name="Path 198" d="M552.24,556.939c-10.757,0-41.226-.851-58.242-1.326-4.617-.138-7.369-.209-8.906-.187-11.237-.008-19.711-19.173-19.726-44.579.005-25.431,8.465-44.613,19.684-44.623q2.582.005,4.774,0c1.374-.007,2.658-.017,3.817-.031h.031a2.744,2.744,0,0,1,.032,5.487c-1.17.014-2.465.024-3.86.031q-2.214,0-4.8,0c-6.708.005-14.189,16.079-14.193,39.134.014,23.031,7.507,39.088,14.225,39.093,1.58,0,4.4.051,9.078.191,17.16.478,52.862,1.478,60.346,1.306,11.671-.252,20.307-3.832,25.672-10.646,5.315-6.751,5.964-15.063,5.1-19a2.743,2.743,0,0,1,5.36-1.171c1.3,5.94-.075,15.849-6.153,23.569-4.42,5.612-13.187,12.378-29.86,12.734C554,556.932,553.2,556.939,552.24,556.939Z" transform="translate(-424.885 -387.758)"/>
        <path id="Path_199" data-name="Path 199" d="M483.407,504.718a2.64,2.64,0,0,1-.364-.026,2.748,2.748,0,0,1-2.363-3.046,11.317,11.317,0,0,1,.243-1.205c.851-3.38,4.953-14.92,22.043-22.074,7.306-3.061,6.42-14.109,5.484-25.806-1.076-13.437-2.3-28.666,11.242-31.922a16.871,16.871,0,0,1,5.1-.484c4.449.233,8.343,2.326,11.544,6.213,8.639,10.491,10.112,32.112,7.738,48.886-.163,1.221-.347,2.5-.567,3.787a70.028,70.028,0,0,1-2.641,11.152,2.743,2.743,0,0,1-5.16-1.861,63.46,63.46,0,0,0,2.392-10.2c.209-1.229.385-2.452.543-3.63,2.608-18.449-.082-36.8-6.54-44.647a10.365,10.365,0,0,0-7.631-4.226,11.783,11.783,0,0,0-3.485.341c-8.385,2.016-8.264,11.225-7.069,26.153,1.054,13.13,2.14,26.707-8.833,31.305-14.743,6.17-18.146,15.6-18.839,18.342-.083.337-.121.55-.129.61A2.738,2.738,0,0,1,483.407,504.718Z" transform="translate(-414.14 -420.124)"/>
        <path id="Path_200" data-name="Path 200" d="M518.052,467.8a33.344,33.344,0,0,1-9.247-1.207,2.743,2.743,0,0,1,1.543-5.264,29.568,29.568,0,0,0,9.563.938,35.153,35.153,0,0,0,11.5-2.29,2.744,2.744,0,0,1,2.045,5.092,40.788,40.788,0,0,1-13.311,2.68Q519.089,467.8,518.052,467.8Z" transform="translate(-395.751 -392.263)"/>
        <path id="Path_201" data-name="Path 201" d="M541.824,502.509a2.744,2.744,0,0,1-.266-5.474,32.905,32.905,0,0,0,3.306-.487,24.647,24.647,0,0,0,10.059-4.244c.015-.014.032-.027.048-.039a16.04,16.04,0,0,0,5.9-17.463c-1.917-7.257-10.589-11.4-20.258-13.84a94.117,94.117,0,0,0-23.151-2.574,2.743,2.743,0,1,1-.308-5.477c8.521-.484,44.048,1.66,49.023,20.5a21.575,21.575,0,0,1-7.811,23.165c-.032.027-.063.053-.092.073a30.035,30.035,0,0,1-12.344,5.285,37.7,37.7,0,0,1-3.838.567C542.006,502.5,541.914,502.509,541.824,502.509Z" transform="translate(-390.316 -397.131)"/>
        <path id="Path_202" data-name="Path 202" d="M531.958,518.626a2.743,2.743,0,0,1-.375-5.46l.831-.117a37.367,37.367,0,0,0,6.073-1.417,28.491,28.491,0,0,0,3.286-1.331c9.146-4.372,10.3-11.911,10.164-16.018-.2-6.385-3.468-11.938-6.4-13.12a2.743,2.743,0,1,1,2.052-5.087c5.348,2.157,9.575,9.909,9.829,18.035.291,9.26-4.548,16.964-13.272,21.132a33.5,33.5,0,0,1-3.935,1.6,42.847,42.847,0,0,1-7.016,1.64l-.86.123A2.908,2.908,0,0,1,531.958,518.626Z" transform="translate(-380.024 -380.955)"/>
        <path id="Path_203" data-name="Path 203" d="M487.625,474.847a2.74,2.74,0,0,1-2.319-1.275c-1.919-3.026-4.982-6.655-8.681-6.764a2.742,2.742,0,0,1-2.659-2.823,2.793,2.793,0,0,1,2.823-2.661c4.834.143,9.381,3.364,13.151,9.311a2.744,2.744,0,0,1-2.314,4.212Z" transform="translate(-418.844 -391.178)"/>
        <path id="Path_204" data-name="Path 204" d="M499.206,567.777l-34.273-1.207h-.014c-6.618,0-12.7-5.627-17.036-15.841-4.05-9.546-6.284-22.384-6.293-36.147,0-29.855,10.287-53.248,23.412-53.262l34.181,0,.354.01.759-.007h.017a2.744,2.744,0,0,1,.017,5.487l-.862.005-.371-.01-34.093.005c-8.479.009-17.928,19.629-17.93,47.773.007,13.043,2.089,25.12,5.859,34.005,3.368,7.944,7.774,12.5,12.087,12.5h.005l34.275,1.207c3.01,0,6.286-2.584,9.128-7.273a2.743,2.743,0,0,1,4.692,2.842C508.154,566.056,502.812,567.777,499.206,567.777Z" transform="translate(-441.59 -391.183)"/>
        <g id="Group_63" data-name="Group 63" transform="translate(22.993 149.575)">
          <path id="Path_205" data-name="Path 205" d="M469.356,514.667c0,2.819-2.828,5.109-6.351,5.116-3.473-.007-6.3-2.307-6.3-5.111,0-2.819,2.828-5.077,6.3-5.086C466.528,509.6,469.344,511.846,469.356,514.667Z" transform="translate(-453.963 -506.844)" fill="#fff"/>
          <path id="Path_206" data-name="Path 206" d="M464.143,523.66c-5-.01-9.054-3.536-9.048-7.861.005-4.374,3.976-7.811,9.037-7.823,5.092.014,9.082,3.446,9.1,7.811v.017C473.224,520.126,469.148,523.65,464.143,523.66Zm-.012-10.2c-1.881,0-3.548,1.1-3.55,2.346,0,1.115,1.461,2.362,3.562,2.365s3.6-1.251,3.6-2.37C467.735,514.538,466.082,513.467,464.131,513.462Z" transform="translate(-455.095 -507.976)"/>
        </g>
      </g>
    </g>
  </g>
</svg>
